<svg width="251" height="261" viewBox="0 0 251 261" fill="none" xmlns="http://www.w3.org/2000/svg">
<path d="M157.775 3.76978L29.4692 65.2979M157.775 3.76978L248.709 91.155M157.775 3.76978L163.504 97.5585M157.775 3.76978L185.652 60.5744M29.4692 65.2979L2.50872 170.425M29.4692 65.2979L163.504 97.5585M29.4692 65.2979L64.1401 203.922L92.5754 259.055M2.50872 170.425L65.5563 201.001M2.50872 170.425L90.4228 256.937M2.50872 170.425L32.4266 42.8696M2.50872 170.425L87.3911 164.143M92.5754 259.055L216.306 221.113M92.5754 259.055L90.4228 256.937M216.306 221.113L163.504 97.5585M216.306 221.113L65.5563 201.001M216.306 221.113L222.417 196.607M248.709 91.155L222.417 196.607M248.709 91.155L185.652 60.5744M248.709 91.155L163.504 97.5585M163.504 97.5585L96.345 168.485M65.5563 201.001L96.345 168.485M90.4228 256.937L222.417 196.607M90.4228 256.937L87.3911 164.143M222.417 196.607L96.345 168.485M222.417 196.607L185.652 60.5744M96.345 168.485L87.3911 164.143M154.142 2.00778L32.4266 42.8696M32.4266 42.8696L185.652 60.5744M32.4266 42.8696L87.3911 164.143M185.652 60.5744L87.3911 164.143" stroke="#E4AE6F" stroke-opacity="0.5" stroke-width="3"/>
</svg>
