<svg width="519" height="504" viewBox="0 0 519 504" fill="none" xmlns="http://www.w3.org/2000/svg">
<path d="M330.361 6.35681L61.3977 106.65M330.361 6.35681L517.302 194.953M330.361 6.35681L339.657 193.25M330.361 6.35681L386.826 123.676M61.3977 106.65L2.28975 310.498M61.3977 106.65L339.657 193.25M61.3977 106.65L129.714 387.314L187.389 501.415M2.28975 310.498L132.745 381.765M2.28975 310.498L182.965 496.852M2.28975 310.498L68.1876 62.6883M2.28975 310.498L179.259 312.386M187.389 501.415L446.161 447.105M187.389 501.415L182.965 496.852M446.161 447.105L339.657 193.25M446.161 447.105L132.745 381.765M446.161 447.105L459.576 399.556M517.302 194.953L459.576 399.556M517.302 194.953L386.826 123.676M517.302 194.953L339.657 193.25M339.657 193.25L197.786 322.507M132.745 381.765L197.786 322.507M182.965 496.852L459.576 399.556M182.965 496.852L179.259 312.386M459.576 399.556L197.786 322.507M459.576 399.556L386.826 123.676M197.786 322.507L179.259 312.386M322.843 2.24995L68.1876 62.6883M68.1876 62.6883L386.826 123.676M68.1876 62.6883L179.259 312.386M386.826 123.676L179.259 312.386" stroke="#00CAFF" stroke-opacity="0.5" stroke-width="3"/>
</svg>
