<svg width="520" height="507" viewBox="0 0 520 507" fill="none" xmlns="http://www.w3.org/2000/svg">
<path d="M205.074 2L17.1172 218.961M205.074 2L459.547 77.8878M205.074 2L302.832 161.559M205.074 2L310.871 77.8878M17.1172 218.961L62.9727 426.193M17.1172 218.961L302.832 161.559M17.1172 218.961L211.625 432.517L316.941 505M62.9727 426.193H211.625M62.9727 426.193L310.871 503.117M62.9727 426.193L2 177.126M62.9727 426.193L219.184 343.009M316.941 505L518 333.28M316.941 505L310.871 503.117M518 333.28L302.832 161.559M518 333.28L211.625 426.193M518 333.28L506.977 285.12M459.547 77.8878L506.977 285.12M459.547 77.8878H310.871M459.547 77.8878L302.832 161.559M302.832 161.559L240.295 343.009M211.625 426.193L240.295 343.009M310.871 503.117L506.977 285.12M310.871 503.117L219.184 343.009M506.977 285.12L240.295 343.009M506.977 285.12L310.871 77.8878M240.295 343.009H219.184M196.508 2L2 177.126M2 177.126L310.871 77.8878M2 177.126L219.184 343.009M310.871 77.8878L219.184 343.009" stroke="#C12082" stroke-opacity="0.5" stroke-width="3"/>
</svg>
